<svg width="32" height="38" viewBox="0 0 32 38" fill="none" xmlns="http://www.w3.org/2000/svg">
<path d="M29.3155 12.0758C27.8316 12.0758 26.631 13.2853 26.631 14.778V24.356C26.631 25.0733 26.9138 25.7611 27.4173 26.2682C27.9207 26.7754 28.6035 27.0603 29.3155 27.0603C30.0275 27.0603 30.7103 26.7754 31.2137 26.2682C31.7172 25.7611 32 25.0733 32 24.356V14.778C32 13.2853 30.7994 12.0758 29.3155 12.0758ZM2.68451 12.0758C1.20058 12.0758 0 13.2853 0 14.778V24.356C0 25.0733 0.282831 25.7611 0.786274 26.2682C1.28972 26.7754 1.97253 27.0603 2.68451 27.0603C3.39648 27.0603 4.0793 26.7754 4.58274 26.2682C5.08618 25.7611 5.36902 25.0733 5.36902 24.356V14.778C5.36929 14.4229 5.30003 14.0712 5.16519 13.7431C5.03035 13.415 4.83259 13.1169 4.58323 12.8659C4.33387 12.6149 4.0378 12.4159 3.71199 12.2804C3.38618 12.1448 3.03702 12.0753 2.68451 12.0758ZM21.3417 4.02226L22.9537 1.08753C23.0008 1.00398 23.031 0.911826 23.0424 0.816431C23.0539 0.721035 23.0464 0.624297 23.0204 0.531836C22.9945 0.439375 22.9505 0.353036 22.8911 0.277835C22.8318 0.202634 22.7581 0.14007 22.6745 0.093779C22.5912 0.0464338 22.4993 0.0162509 22.4043 0.00498486C22.3093 -0.00628119 22.213 0.00159419 22.121 0.0281534C22.029 0.0547126 21.9432 0.099426 21.8685 0.159694C21.7938 0.219962 21.7318 0.294582 21.686 0.379217L20.0299 3.38161C18.7958 2.88473 17.4357 2.60352 16 2.60352C14.5643 2.60352 13.2043 2.88262 11.9701 3.37949L10.3141 0.381332C10.2683 0.296696 10.2062 0.222076 10.1315 0.161808C10.0568 0.10154 9.97102 0.0568273 9.87904 0.0302681C9.78705 0.0037089 9.69074 -0.00416648 9.59571 0.00709957C9.50068 0.0183656 9.40881 0.048548 9.32546 0.0958932C9.24228 0.142599 9.16906 0.205375 9.11 0.280626C9.05093 0.355878 9.00718 0.442126 8.98125 0.534434C8.95532 0.626741 8.94772 0.723295 8.95888 0.818566C8.97005 0.913836 8.99976 1.00595 9.04631 1.08964L10.6583 4.02437C7.75548 5.69049 5.81608 8.66962 5.81608 12.0758C5.81608 12.0991 5.81608 12.1203 5.82028 12.1477C5.81608 12.1604 5.81608 12.1752 5.81608 12.1879V12.19H26.1818V12.0758C26.1839 8.66962 24.2445 5.6926 21.3417 4.02226ZM11.2984 8.18331C11.2029 8.18262 11.1085 8.16298 11.0205 8.12552C10.9326 8.08807 10.8528 8.03352 10.7857 7.965C10.6503 7.82661 10.575 7.63971 10.5764 7.4454C10.5778 7.2511 10.6558 7.06531 10.7931 6.92891C10.9305 6.7925 11.1161 6.71666 11.3089 6.71806C11.5018 6.71947 11.6863 6.798 11.8217 6.93638C11.9571 7.07477 12.0324 7.26167 12.031 7.45598C12.0296 7.65028 11.9516 7.83607 11.8142 7.97247C11.6769 8.10887 11.4913 8.18472 11.2984 8.18331ZM20.7016 8.18331C20.5185 8.16928 20.3474 8.08612 20.2226 7.95047C20.0978 7.81482 20.0285 7.6367 20.0285 7.45175C20.0285 7.2668 20.0978 7.08867 20.2226 6.95302C20.3474 6.81737 20.5185 6.73421 20.7016 6.72018C20.8942 6.72018 21.0789 6.79725 21.2151 6.93445C21.3513 7.07164 21.4278 7.25772 21.4278 7.45175C21.4278 7.64577 21.3513 7.83185 21.2151 7.96904C21.0789 8.10624 20.8942 8.18331 20.7016 8.18331ZM5.81608 27.7432C5.81608 29.1091 6.91801 30.2192 8.2802 30.2192H9.51017V35.2957C9.51017 36.0129 9.793 36.7008 10.2964 37.2079C10.7999 37.7151 11.4827 38 12.1947 38C12.9067 38 13.5895 37.7151 14.0929 37.2079C14.5964 36.7008 14.8792 36.0129 14.8792 35.2957V30.2192H17.1166V35.2957C17.1166 36.7906 18.3172 37.9979 19.7969 37.9979C21.2851 37.9979 22.4856 36.7906 22.4856 35.2957V30.2192H23.7156C25.0757 30.2192 26.1797 29.1112 26.1797 27.7432V12.7482H5.81608V27.7432Z" fill="white"/>
</svg>
