<svg width="32" height="32" viewBox="0 0 32 32" fill="none" xmlns="http://www.w3.org/2000/svg">
<g clip-path="url(#clip0_148_366)">
<path d="M16 32C24.8366 32 32 24.8366 32 16C32 7.16344 24.8366 0 16 0C7.16344 0 0 7.16344 0 16C0 24.8366 7.16344 32 16 32Z" fill="white"/>
<path d="M21.5447 10.9064C20.5073 10.4303 19.4126 10.0908 18.2878 9.89638C18.2776 9.89443 18.267 9.89577 18.2576 9.9002C18.2481 9.90464 18.2403 9.91194 18.2353 9.92107C18.086 10.1918 17.9504 10.4698 17.8291 10.7542C16.6167 10.5701 15.3836 10.5701 14.1712 10.7542C14.0494 10.4691 13.9119 10.191 13.7594 9.92107C13.7541 9.91213 13.7463 9.90499 13.737 9.90058C13.7276 9.89617 13.7171 9.89471 13.7069 9.89638C12.5825 10.0904 11.4881 10.43 10.4512 10.9064C10.4423 10.9101 10.4348 10.9166 10.4297 10.9248C8.35562 14.0239 7.7875 17.0467 8.06625 20.0314C8.06704 20.0387 8.06931 20.0458 8.07291 20.0523C8.0765 20.0587 8.08136 20.0644 8.08719 20.0689C9.29495 20.9635 10.6459 21.6465 12.0825 22.0886C12.0926 22.0916 12.1035 22.0915 12.1135 22.0882C12.1236 22.0849 12.1324 22.0786 12.1387 22.0701C12.4472 21.6502 12.7205 21.2056 12.9559 20.7408C12.9591 20.7344 12.961 20.7274 12.9613 20.7203C12.9616 20.7131 12.9604 20.706 12.9578 20.6994C12.9552 20.6927 12.9512 20.6867 12.9461 20.6817C12.9409 20.6767 12.9348 20.6729 12.9281 20.6704C12.4971 20.5058 12.0797 20.3073 11.68 20.0767C11.6727 20.0724 11.6667 20.0664 11.6623 20.0593C11.6579 20.0521 11.6553 20.0439 11.6548 20.0355C11.6543 20.0271 11.6559 20.0187 11.6594 20.0111C11.6629 20.0034 11.6683 19.9968 11.675 19.9917C11.7587 19.9292 11.8428 19.8636 11.9228 19.7973C11.9299 19.7915 11.9385 19.7878 11.9476 19.7865C11.9567 19.7853 11.966 19.7867 11.9744 19.7904C14.5928 20.9861 17.4278 20.9861 20.0153 19.7904C20.0238 19.7864 20.0332 19.7848 20.0425 19.7859C20.0518 19.7871 20.0606 19.7908 20.0678 19.7967C20.1478 19.8626 20.2319 19.9289 20.3178 19.9917C20.3245 19.9967 20.3299 20.0034 20.3335 20.011C20.3371 20.0186 20.3387 20.027 20.3383 20.0354C20.3379 20.0438 20.3354 20.0519 20.331 20.0591C20.3267 20.0663 20.3207 20.0724 20.3134 20.0767C19.9142 20.3095 19.4961 20.5081 19.0634 20.6704C19.0567 20.673 19.0506 20.6769 19.0455 20.682C19.0403 20.6871 19.0364 20.6932 19.0338 20.7C19.0312 20.7067 19.0301 20.7139 19.0305 20.7211C19.031 20.7283 19.0329 20.7353 19.0362 20.7417C19.2756 21.204 19.5485 21.6481 19.8528 22.0704C19.859 22.0791 19.8677 22.0857 19.8778 22.0891C19.8879 22.0925 19.8989 22.0927 19.9091 22.0895C21.3476 21.6487 22.7003 20.9657 23.9091 20.0698C23.915 20.0655 23.9199 20.06 23.9235 20.0536C23.9271 20.0473 23.9293 20.0402 23.93 20.0329C24.2637 16.5817 23.3712 13.5836 21.5644 10.9261C21.5603 10.9174 21.5534 10.9104 21.5447 10.9064ZM13.3466 18.2142C12.5581 18.2142 11.9091 17.4904 11.9091 16.6017C11.9091 15.7129 12.5459 14.9892 13.3466 14.9892C14.1537 14.9892 14.7972 15.7192 14.7841 16.6017C14.7847 17.4904 14.1475 18.2142 13.3466 18.2142ZM18.6631 18.2142C17.8747 18.2142 17.2256 17.4904 17.2256 16.6017C17.2256 15.7129 17.8625 14.9892 18.6631 14.9892C19.4703 14.9892 20.1137 15.7192 20.1006 16.6017C20.1009 17.4904 19.4703 18.2142 18.6631 18.2142Z" fill="#1C1F20"/>
</g>
<defs>
<clipPath id="clip0_148_366">
<rect width="32" height="32" fill="white"/>
</clipPath>
</defs>
</svg>
