<svg width="263" height="223" viewBox="0 0 263 223" fill="none" xmlns="http://www.w3.org/2000/svg">
<path d="M195.733 214.617H19.167L1.22705 196.677V33.6861L19.167 15.748H28.886" stroke="#1CC2EB" stroke-width="0.73"/>
<path d="M141.974 15.748H243.974L261.914 33.6861V42.7151" stroke="#1CC2EB" stroke-width="0.73"/>
<path d="M261.911 42.8789V196.679L243.971 214.619" stroke="#1CC2EB" stroke-width="0.73"/>
<path opacity="0.12" d="M252.832 34.802L252.877 39.382V201.208L259.177 194.908V40.893L252.832 34.802Z" fill="#1CC2EB"/>
<path d="M141.974 21.512H242.498L249.037 28.05V103.544" stroke="#48BB86" stroke-width="0.66"/>
<path d="M243.721 202.305V120.953L253.689 110.985V192.885" stroke="#48BB86" stroke-width="0.73"/>
<path d="M8.51611 33.4451L23.0341 18.9241" stroke="#48BB86" stroke-width="1.32"/>
<path opacity="0.35" d="M3.19775 213.055V205.324L10.9238 213.055H3.19775Z" fill="#38FF82"/>
<path d="M203.586 210.355V211.771L204.97 211.288L205.224 211.993L203.84 212.444L204.697 213.637L204.069 214.088L203.237 212.85L202.399 214.088L201.752 213.637L202.622 212.444L201.225 211.993L201.479 211.288L202.85 211.783V210.355H203.586ZM208.652 210.355V211.771L210.036 211.288L210.29 211.993L208.906 212.444L209.763 213.637L209.134 214.088L208.303 212.85L207.465 214.088L206.817 213.637L207.687 212.444L206.291 211.993L206.544 211.288L207.916 211.783V210.355H208.652ZM213.717 210.355V211.771L215.101 211.288L215.355 211.993L213.971 212.444L214.828 213.637L214.2 214.088L213.368 212.85L212.53 214.088L211.883 213.637L212.752 212.444L211.356 211.993L211.61 211.288L212.981 211.783V210.355H213.717ZM218.783 210.355V211.771L220.167 211.288L220.42 211.993L219.037 212.444L219.894 213.637L219.265 214.088L218.434 212.85L217.596 214.088L216.948 213.637L217.818 212.444L216.421 211.993L216.675 211.288L218.046 211.783V210.355H218.783Z" fill="#55D1F0"/>
<path d="M25.7079 44.8999H23.7549V194.133H25.7079V44.8999Z" fill="#1CC2EB"/>
<path d="M185.633 1.05701L179.343 15.188" stroke="#1CC2EB" stroke-width="1.15"/>
<path d="M190.615 1.05701L184.328 15.188" stroke="#48BB86" stroke-width="1.15"/>
<path d="M195.601 1.05701L189.311 15.188" stroke="#48BB86" stroke-width="1.15"/>
<path d="M32 32L13.5 51V183.5L33 202.5H221L239 184.5L240 51.5L221.5 32H32Z" fill="#272727"/>
<circle cx="79.5" cy="69.5" r="0.5" fill="#D9D9D9"/>
<circle cx="90.5" cy="66.5" r="0.5" fill="#D9D9D9"/>
<circle cx="120.5" cy="97.5" r="0.5" fill="#D9D9D9"/>
<circle cx="222.5" cy="67.5" r="0.5" fill="#D9D9D9"/>
<circle cx="216.5" cy="40.5" r="0.5" fill="#D9D9D9"/>
<circle cx="142.5" cy="55.5" r="0.5" fill="#D9D9D9"/>
<circle cx="222.5" cy="185.5" r="0.5" fill="#D9D9D9"/>
<circle cx="127.5" cy="188.5" r="0.5" fill="#D9D9D9"/>
<circle cx="113.5" cy="149.5" r="0.5" fill="#D9D9D9"/>
<circle cx="184.5" cy="142.5" r="0.5" fill="#D9D9D9"/>
<circle cx="47.5" cy="145.5" r="0.5" fill="#D9D9D9"/>
<circle cx="26.5" cy="184.5" r="0.5" fill="#D9D9D9"/>
<circle cx="23.5" cy="133.5" r="0.5" fill="#D9D9D9"/>
<circle cx="30.5" cy="51.5" r="0.5" fill="#D9D9D9"/>
<circle cx="48.5" cy="100.5" r="23.5" fill="url(#paint0_linear_228_263)"/>
<circle cx="192" cy="150" r="16" transform="rotate(-180 192 150)" fill="url(#paint1_linear_228_263)"/>
<defs>
<linearGradient id="paint0_linear_228_263" x1="48.5" y1="91.7714" x2="48.3854" y2="124" gradientUnits="userSpaceOnUse">
<stop stop-color="#48BB86"/>
<stop offset="1" stop-color="#3A5CAA"/>
</linearGradient>
<linearGradient id="paint1_linear_228_263" x1="192" y1="144.057" x2="191.922" y2="166" gradientUnits="userSpaceOnUse">
<stop stop-color="#48BB86"/>
<stop offset="1" stop-color="#3A5CAA"/>
</linearGradient>
</defs>
</svg>
