<svg width="22" height="22" viewBox="0 0 22 22" fill="none" xmlns="http://www.w3.org/2000/svg">
<path d="M11 21.9999C17.0751 21.9999 21.9999 17.0751 21.9999 11C21.9999 4.92485 17.0751 0 11 0C4.92485 0 0 4.92485 0 11C0 17.0751 4.92485 21.9999 11 21.9999Z" fill="#61A2EF"/>
<path d="M22.0001 11.0001C22.0001 4.92501 17.0752 4.29689e-05 11.0001 0V22.0001C17.0752 22 22.0001 17.0752 22.0001 11.0001Z" fill="#528ACF"/>
<path d="M2.33672 7.98246C2.87164 8.5457 3.46019 9.05797 4.09179 9.51018C4.26517 9.63427 4.45234 9.76752 4.52126 9.9693C4.72154 10.556 4.37771 11.1894 4.72816 11.858C5.05949 12.4903 5.79134 12.8847 5.98049 13.573C6.12804 14.1099 5.90125 14.6926 6.02943 15.2345C6.18485 15.8916 6.81946 16.3352 7.04865 16.9704C7.19449 17.3746 7.16329 17.8214 7.26986 18.2377C7.37642 18.6539 7.71188 19.0783 8.13972 19.0392C8.65664 18.992 8.86899 18.3547 8.90938 17.8372C8.94981 17.3197 9.00279 16.6956 9.46617 16.4616C9.7126 16.3372 10.0346 16.3565 10.2275 16.159C10.548 15.8307 10.2256 15.2931 10.2366 14.8344C10.2483 14.3456 10.6505 13.9673 11.0223 13.6497C11.4909 13.2495 11.9594 12.8493 12.4279 12.4491C12.7533 12.174 12.8365 11.6812 12.703 11.2765C12.5695 10.8718 12.2543 10.5489 11.8998 10.3125C11.5184 10.0583 11.0273 9.88745 10.6043 10.0637C10.2822 10.1979 10.0331 10.5192 9.68488 10.5393C9.36369 10.5578 9.08658 10.3028 8.93254 10.0204C8.77854 9.73791 8.70588 9.41659 8.54973 9.13527C8.10156 8.32763 7.37608 8.37683 6.59383 8.25583C5.80406 8.13367 5.00088 7.76495 4.41234 7.22539C4.31802 7.13894 4.22452 7.04277 4.18714 6.92044C3.97797 6.2359 5.19033 5.93301 5.60967 5.94685C5.95346 5.95815 6.30422 6.05844 6.63538 5.96559C6.94802 5.87797 7.1871 5.63391 7.45282 5.44734C8.20473 4.91938 9.30362 5.63932 9.44903 4.21112C9.506 3.65175 9.28948 3.10476 9.07709 2.58415C8.76913 1.82927 8.49211 1.11328 8.28998 0.336914C5.16124 1.1296 2.56747 3.26305 1.15491 6.09002C1.53097 6.49483 1.4208 6.30568 1.57849 6.83579C1.71045 7.27923 2.01811 7.64705 2.33672 7.98246Z" fill="#9ED04D"/>
<path d="M14.1798 2.9891C14.1036 3.08772 14.025 3.19196 14.0055 3.31507C13.9738 3.51599 14.1059 3.70226 14.2308 3.86275C14.4204 4.10643 14.6325 4.36514 14.9321 4.43986C15.4906 4.57908 15.9902 4.02006 16.5639 3.97404C17.0246 3.93709 17.4521 4.23632 17.914 4.25312C18.438 4.27211 18.7087 3.7729 18.8145 3.25938C17.973 2.40984 16.9939 1.69716 15.9134 1.15674C15.4923 1.70189 14.6009 2.44409 14.1798 2.9891Z" fill="#86B143"/>
<path d="M21.4954 7.6983C21.2921 8.31838 20.7207 8.15433 19.9796 8.21135C19.0281 8.28456 18.4498 7.81663 17.5709 7.64192C16.7552 7.4798 16.0384 8.04162 15.6573 8.71791C15.3744 9.22 14.931 10.3312 15.3033 10.8441C15.4813 11.0892 15.7484 11.2515 16.0081 11.4072C16.3822 11.6314 16.7581 11.8565 17.1625 12.0197C17.6275 12.2073 18.161 12.3356 18.4567 12.7404C18.7003 13.0738 18.72 13.5197 18.6777 13.9303C18.5627 15.0453 17.5919 16.0349 18.4783 17.0478C18.8114 17.4284 19.2648 17.6389 19.7705 17.6394C21.1694 15.7943 21.9999 13.4945 21.9999 11.0005C22.0001 9.84988 21.8231 8.74072 21.4954 7.6983Z" fill="#86B143"/>
<path d="M12.7029 11.2765C12.5695 10.8718 12.2543 10.5488 11.8997 10.3125C11.6332 10.1348 11.3132 9.99842 11.0001 9.99219V13.6688C11.0076 13.6625 11.0149 13.656 11.0223 13.6497C11.4908 13.2495 11.9594 12.8493 12.4279 12.4491C12.7533 12.1739 12.8365 11.6812 12.7029 11.2765Z" fill="#86B143"/>
</svg>
