<svg width="394" height="393" viewBox="0 0 394 393" fill="none" xmlns="http://www.w3.org/2000/svg">
<g filter="url(#filter0_d_148_461)">
<path d="M202.996 196.569C202.997 195.464 202.67 194.383 202.056 193.464C201.442 192.545 200.57 191.828 199.549 191.405C198.528 190.982 197.405 190.871 196.321 191.086C195.237 191.301 194.241 191.833 193.459 192.615C192.678 193.396 192.145 194.392 191.929 195.476C191.714 196.559 191.824 197.683 192.247 198.704C192.67 199.725 193.386 200.598 194.305 201.212C195.224 201.826 196.305 202.153 197.41 202.153C198.891 202.153 200.312 201.565 201.359 200.518C202.407 199.471 202.996 198.05 202.996 196.569Z" fill="#1CC2EB"/>
</g>
<g opacity="0.299">
<path d="M108.211 36.5811L144.211 0.581055L340.111 53.07L373.871 179.081" stroke="#3A5CAA" stroke-linecap="round" stroke-linejoin="round"/>
<path d="M376.6 189.269L376.712 189.691" stroke="#3A5CAA" stroke-linecap="round" stroke-linejoin="round"/>
<path d="M377.626 193.101L392.025 246.842" stroke="#3A5CAA" stroke-linecap="round" stroke-linejoin="round" stroke-dasharray="1.01 4.05"/>
<path d="M392.483 248.547L392.597 248.969L392.289 249.277" stroke="#3A5CAA" stroke-linecap="round" stroke-linejoin="round"/>
<path d="M389.845 251.718L250.719 390.847" stroke="#3A5CAA" stroke-linecap="round" stroke-linejoin="round" stroke-dasharray="0.99 3.96"/>
<path d="M249.497 392.067L249.188 392.375L248.766 392.263" stroke="#3A5CAA" stroke-linecap="round" stroke-linejoin="round"/>
<path d="M245.434 391.369L55.379 340.443" stroke="#3A5CAA" stroke-linecap="round" stroke-linejoin="round" stroke-dasharray="0.99 3.96"/>
<path d="M53.7122 339.998L53.292 339.884L53.1802 339.464" stroke="#3A5CAA" stroke-linecap="round" stroke-linejoin="round"/>
<path d="M52.285 336.129L1.35901 146.074" stroke="#3A5CAA" stroke-linecap="round" stroke-linejoin="round" stroke-dasharray="0.99 3.96"/>
<path d="M0.914062 144.41L0.800049 143.987L1.10791 143.679" stroke="#3A5CAA" stroke-linecap="round" stroke-linejoin="round"/>
<path d="M3.59802 141.186L101.955 42.729" stroke="#3A5CAA" stroke-linecap="round" stroke-linejoin="round" stroke-dasharray="1.01 4.04"/>
<path d="M103.201 41.482L103.509 41.176" stroke="#3A5CAA" stroke-linecap="round" stroke-linejoin="round"/>
<path d="M380.511 184.174C380.511 183.13 380.201 182.11 379.621 181.242C379.041 180.374 378.216 179.697 377.252 179.298C376.287 178.899 375.226 178.795 374.202 178.999C373.178 179.203 372.238 179.705 371.5 180.444C370.762 181.182 370.259 182.123 370.056 183.147C369.853 184.171 369.958 185.232 370.358 186.196C370.757 187.161 371.434 187.985 372.302 188.564C373.171 189.144 374.191 189.453 375.235 189.453C376.635 189.452 377.977 188.896 378.966 187.906C379.955 186.916 380.511 185.574 380.511 184.174V184.174Z" stroke="#3A5CAA" stroke-linecap="round" stroke-linejoin="round"/>
<path d="M32.1381 36.7881H351.52V356.172H32.1381V36.7881Z" stroke="#3A5CAA" stroke-linecap="round"/>
</g>
<path opacity="0.4" d="M286.978 356.169C286.978 355.641 286.821 355.124 286.527 354.685C286.233 354.246 285.816 353.904 285.327 353.702C284.839 353.5 284.302 353.447 283.784 353.551C283.265 353.654 282.789 353.909 282.416 354.282C282.042 354.656 281.788 355.132 281.685 355.65C281.582 356.169 281.635 356.706 281.838 357.194C282.04 357.682 282.383 358.099 282.822 358.393C283.261 358.686 283.778 358.843 284.306 358.843C284.657 358.843 285.005 358.774 285.329 358.639C285.653 358.505 285.948 358.308 286.196 358.06C286.444 357.811 286.641 357.517 286.775 357.192C286.909 356.868 286.978 356.52 286.978 356.169V356.169Z" stroke="#1CC2EB" stroke-linecap="round" stroke-linejoin="round"/>
<path opacity="0.4" d="M112.734 36.5771C112.734 35.6817 112.469 34.8064 111.972 34.0619C111.474 33.3174 110.767 32.7372 109.94 32.3946C109.113 32.0519 108.203 31.9624 107.325 32.1371C106.447 32.3119 105.64 32.7431 105.007 33.3764C104.374 34.0096 103.943 34.8163 103.769 35.6945C103.594 36.5727 103.684 37.4828 104.027 38.3098C104.37 39.1369 104.951 39.8436 105.696 40.3406C106.44 40.8376 107.316 41.1026 108.211 41.102C109.411 41.1012 110.561 40.6242 111.409 39.7757C112.257 38.9272 112.734 37.7767 112.734 36.5771Z" stroke="#1CC2EB" stroke-linecap="round" stroke-linejoin="round"/>
<path opacity="0.4" d="M22.2601 206.683C22.2601 205.789 21.9947 204.914 21.4977 204.17C21.0007 203.426 20.2944 202.847 19.4679 202.504C18.6414 202.162 17.732 202.073 16.8546 202.247C15.9772 202.422 15.1713 202.852 14.5387 203.485C13.9062 204.117 13.4754 204.923 13.3009 205.801C13.1264 206.678 13.2159 207.587 13.5582 208.414C13.9006 209.24 14.4805 209.947 15.2243 210.444C15.9681 210.941 16.8424 211.206 17.737 211.206C18.9365 211.206 20.087 210.73 20.9352 209.881C21.7834 209.033 22.2601 207.883 22.2601 206.683Z" stroke="#1CC2EB" stroke-linecap="round" stroke-linejoin="round"/>
<path opacity="0.3" d="M356.038 289.766C356.039 288.871 355.773 287.996 355.276 287.252C354.779 286.507 354.073 285.927 353.246 285.584C352.419 285.242 351.509 285.152 350.631 285.326C349.753 285.5 348.947 285.931 348.314 286.564C347.681 287.197 347.25 288.004 347.075 288.881C346.9 289.759 346.99 290.669 347.333 291.496C347.675 292.323 348.255 293.03 349 293.527C349.744 294.024 350.619 294.289 351.514 294.289C352.714 294.289 353.864 293.812 354.712 292.964C355.561 292.116 356.038 290.966 356.038 289.766Z" stroke="#1CC2EB" stroke-linecap="round" stroke-linejoin="round"/>
<g filter="url(#filter1_d_148_461)">
<path d="M202.996 196.569C202.997 195.464 202.67 194.383 202.056 193.464C201.442 192.545 200.57 191.828 199.549 191.405C198.528 190.982 197.405 190.871 196.321 191.086C195.237 191.301 194.241 191.833 193.459 192.615C192.678 193.396 192.145 194.392 191.929 195.476C191.714 196.559 191.824 197.683 192.247 198.704C192.67 199.725 193.386 200.598 194.305 201.212C195.224 201.826 196.305 202.153 197.41 202.153C198.891 202.153 200.312 201.565 201.359 200.518C202.407 199.471 202.996 198.05 202.996 196.569Z" fill="#1CC2EB"/>
</g>
<g opacity="0.299">
<path d="M108.211 36.5811L144.211 0.581055L340.111 53.07L373.871 179.081" stroke="#3A5CAA" stroke-linecap="round" stroke-linejoin="round"/>
<path d="M376.6 189.269L376.712 189.691" stroke="#3A5CAA" stroke-linecap="round" stroke-linejoin="round"/>
<path d="M377.626 193.101L392.025 246.842" stroke="#3A5CAA" stroke-linecap="round" stroke-linejoin="round" stroke-dasharray="1.01 4.05"/>
<path d="M392.483 248.547L392.597 248.969L392.289 249.277" stroke="#3A5CAA" stroke-linecap="round" stroke-linejoin="round"/>
<path d="M389.845 251.718L250.719 390.847" stroke="#3A5CAA" stroke-linecap="round" stroke-linejoin="round" stroke-dasharray="0.99 3.96"/>
<path d="M249.497 392.067L249.188 392.375L248.766 392.263" stroke="#3A5CAA" stroke-linecap="round" stroke-linejoin="round"/>
<path d="M245.434 391.369L55.379 340.443" stroke="#3A5CAA" stroke-linecap="round" stroke-linejoin="round" stroke-dasharray="0.99 3.96"/>
<path d="M53.7122 339.998L53.292 339.884L53.1802 339.464" stroke="#3A5CAA" stroke-linecap="round" stroke-linejoin="round"/>
<path d="M52.285 336.129L1.35901 146.074" stroke="#3A5CAA" stroke-linecap="round" stroke-linejoin="round" stroke-dasharray="0.99 3.96"/>
<path d="M0.914062 144.41L0.800049 143.987L1.10791 143.679" stroke="#3A5CAA" stroke-linecap="round" stroke-linejoin="round"/>
<path d="M3.59802 141.186L101.955 42.729" stroke="#3A5CAA" stroke-linecap="round" stroke-linejoin="round" stroke-dasharray="1.01 4.04"/>
<path d="M103.201 41.482L103.509 41.176" stroke="#3A5CAA" stroke-linecap="round" stroke-linejoin="round"/>
<path d="M380.511 184.174C380.511 183.13 380.201 182.11 379.621 181.242C379.041 180.374 378.216 179.697 377.252 179.298C376.287 178.899 375.226 178.795 374.202 178.999C373.178 179.203 372.238 179.705 371.5 180.444C370.762 181.182 370.259 182.123 370.056 183.147C369.853 184.171 369.958 185.232 370.358 186.196C370.757 187.161 371.434 187.985 372.302 188.564C373.171 189.144 374.191 189.453 375.235 189.453C376.635 189.452 377.977 188.896 378.966 187.906C379.955 186.916 380.511 185.574 380.511 184.174V184.174Z" stroke="#3A5CAA" stroke-linecap="round" stroke-linejoin="round"/>
<path d="M32.1381 36.7881H351.52V356.172H32.1381V36.7881Z" stroke="#3A5CAA" stroke-linecap="round"/>
</g>
<path opacity="0.4" d="M286.978 356.169C286.978 355.641 286.821 355.124 286.527 354.685C286.233 354.246 285.816 353.904 285.327 353.702C284.839 353.5 284.302 353.447 283.784 353.551C283.265 353.654 282.789 353.909 282.416 354.282C282.042 354.656 281.788 355.132 281.685 355.65C281.582 356.169 281.635 356.706 281.838 357.194C282.04 357.682 282.383 358.099 282.822 358.393C283.261 358.686 283.778 358.843 284.306 358.843C284.657 358.843 285.005 358.774 285.329 358.639C285.653 358.505 285.948 358.308 286.196 358.06C286.444 357.811 286.641 357.517 286.775 357.192C286.909 356.868 286.978 356.52 286.978 356.169V356.169Z" stroke="#1CC2EB" stroke-linecap="round" stroke-linejoin="round"/>
<path opacity="0.4" d="M112.734 36.5771C112.734 35.6817 112.469 34.8064 111.972 34.0619C111.474 33.3174 110.767 32.7372 109.94 32.3946C109.113 32.0519 108.203 31.9624 107.325 32.1371C106.447 32.3119 105.64 32.7431 105.007 33.3764C104.374 34.0096 103.943 34.8163 103.769 35.6945C103.594 36.5727 103.684 37.4828 104.027 38.3098C104.37 39.1369 104.951 39.8436 105.696 40.3406C106.44 40.8376 107.316 41.1026 108.211 41.102C109.411 41.1012 110.561 40.6242 111.409 39.7757C112.257 38.9272 112.734 37.7767 112.734 36.5771Z" stroke="#1CC2EB" stroke-linecap="round" stroke-linejoin="round"/>
<path opacity="0.4" d="M22.2601 206.683C22.2601 205.789 21.9947 204.914 21.4977 204.17C21.0007 203.426 20.2944 202.847 19.4679 202.504C18.6414 202.162 17.732 202.073 16.8546 202.247C15.9772 202.422 15.1713 202.852 14.5387 203.485C13.9062 204.117 13.4754 204.923 13.3009 205.801C13.1264 206.678 13.2159 207.587 13.5582 208.414C13.9006 209.24 14.4805 209.947 15.2243 210.444C15.9681 210.941 16.8424 211.206 17.737 211.206C18.9365 211.206 20.087 210.73 20.9352 209.881C21.7834 209.033 22.2601 207.883 22.2601 206.683Z" stroke="#1CC2EB" stroke-linecap="round" stroke-linejoin="round"/>
<path opacity="0.3" d="M356.038 289.766C356.039 288.871 355.773 287.996 355.276 287.252C354.779 286.507 354.073 285.927 353.246 285.584C352.419 285.242 351.509 285.152 350.631 285.326C349.753 285.5 348.947 285.931 348.314 286.564C347.681 287.197 347.25 288.004 347.075 288.881C346.9 289.759 346.99 290.669 347.333 291.496C347.675 292.323 348.255 293.03 349 293.527C349.744 294.024 350.619 294.289 351.514 294.289C352.714 294.289 353.864 293.812 354.712 292.964C355.561 292.116 356.038 290.966 356.038 289.766Z" stroke="#1CC2EB" stroke-linecap="round" stroke-linejoin="round"/>
<g filter="url(#filter2_d_148_461)">
<path d="M202.996 196.569C202.997 195.464 202.67 194.383 202.056 193.464C201.442 192.545 200.57 191.828 199.549 191.405C198.528 190.982 197.405 190.871 196.321 191.086C195.237 191.301 194.241 191.833 193.459 192.615C192.678 193.396 192.145 194.392 191.929 195.476C191.714 196.559 191.824 197.683 192.247 198.704C192.67 199.725 193.386 200.598 194.305 201.212C195.224 201.826 196.305 202.153 197.41 202.153C198.891 202.153 200.312 201.565 201.359 200.518C202.407 199.471 202.996 198.05 202.996 196.569Z" fill="#1CC2EB"/>
</g>
<g opacity="0.299">
<path d="M108.211 36.5811L144.211 0.581055L340.111 53.07L373.871 179.081" stroke="#3A5CAA" stroke-linecap="round" stroke-linejoin="round"/>
<path d="M376.6 189.269L376.712 189.691" stroke="#3A5CAA" stroke-linecap="round" stroke-linejoin="round"/>
<path d="M377.626 193.101L392.025 246.842" stroke="#3A5CAA" stroke-linecap="round" stroke-linejoin="round" stroke-dasharray="1.01 4.05"/>
<path d="M392.483 248.547L392.597 248.969L392.289 249.277" stroke="#3A5CAA" stroke-linecap="round" stroke-linejoin="round"/>
<path d="M389.845 251.718L250.719 390.847" stroke="#3A5CAA" stroke-linecap="round" stroke-linejoin="round" stroke-dasharray="0.99 3.96"/>
<path d="M249.497 392.067L249.188 392.375L248.766 392.263" stroke="#3A5CAA" stroke-linecap="round" stroke-linejoin="round"/>
<path d="M245.434 391.369L55.379 340.443" stroke="#3A5CAA" stroke-linecap="round" stroke-linejoin="round" stroke-dasharray="0.99 3.96"/>
<path d="M53.7122 339.998L53.292 339.884L53.1802 339.464" stroke="#3A5CAA" stroke-linecap="round" stroke-linejoin="round"/>
<path d="M52.285 336.129L1.35901 146.074" stroke="#3A5CAA" stroke-linecap="round" stroke-linejoin="round" stroke-dasharray="0.99 3.96"/>
<path d="M0.914062 144.41L0.800049 143.987L1.10791 143.679" stroke="#3A5CAA" stroke-linecap="round" stroke-linejoin="round"/>
<path d="M3.59802 141.186L101.955 42.729" stroke="#3A5CAA" stroke-linecap="round" stroke-linejoin="round" stroke-dasharray="1.01 4.04"/>
<path d="M103.201 41.482L103.509 41.176" stroke="#3A5CAA" stroke-linecap="round" stroke-linejoin="round"/>
<path d="M380.511 184.174C380.511 183.13 380.201 182.11 379.621 181.242C379.041 180.374 378.216 179.697 377.252 179.298C376.287 178.899 375.226 178.795 374.202 178.999C373.178 179.203 372.238 179.705 371.5 180.444C370.762 181.182 370.259 182.123 370.056 183.147C369.853 184.171 369.958 185.232 370.358 186.196C370.757 187.161 371.434 187.985 372.302 188.564C373.171 189.144 374.191 189.453 375.235 189.453C376.635 189.452 377.977 188.896 378.966 187.906C379.955 186.916 380.511 185.574 380.511 184.174V184.174Z" stroke="#3A5CAA" stroke-linecap="round" stroke-linejoin="round"/>
<path d="M32.1381 36.7881H351.52V356.172H32.1381V36.7881Z" stroke="#3A5CAA" stroke-linecap="round"/>
</g>
<path opacity="0.4" d="M286.978 356.169C286.978 355.641 286.821 355.124 286.527 354.685C286.233 354.246 285.816 353.904 285.327 353.702C284.839 353.5 284.302 353.447 283.784 353.551C283.265 353.654 282.789 353.909 282.416 354.282C282.042 354.656 281.788 355.132 281.685 355.65C281.582 356.169 281.635 356.706 281.838 357.194C282.04 357.682 282.383 358.099 282.822 358.393C283.261 358.686 283.778 358.843 284.306 358.843C284.657 358.843 285.005 358.774 285.329 358.639C285.653 358.505 285.948 358.308 286.196 358.06C286.444 357.811 286.641 357.517 286.775 357.192C286.909 356.868 286.978 356.52 286.978 356.169V356.169Z" stroke="#1CC2EB" stroke-linecap="round" stroke-linejoin="round"/>
<path opacity="0.4" d="M112.734 36.5771C112.734 35.6817 112.469 34.8064 111.972 34.0619C111.474 33.3174 110.767 32.7372 109.94 32.3946C109.113 32.0519 108.203 31.9624 107.325 32.1371C106.447 32.3119 105.64 32.7431 105.007 33.3764C104.374 34.0096 103.943 34.8163 103.769 35.6945C103.594 36.5727 103.684 37.4828 104.027 38.3098C104.37 39.1369 104.951 39.8436 105.696 40.3406C106.44 40.8376 107.316 41.1026 108.211 41.102C109.411 41.1012 110.561 40.6242 111.409 39.7757C112.257 38.9272 112.734 37.7767 112.734 36.5771Z" stroke="#1CC2EB" stroke-linecap="round" stroke-linejoin="round"/>
<path opacity="0.4" d="M22.2601 206.683C22.2601 205.789 21.9947 204.914 21.4977 204.17C21.0007 203.426 20.2944 202.847 19.4679 202.504C18.6414 202.162 17.732 202.073 16.8546 202.247C15.9772 202.422 15.1713 202.852 14.5387 203.485C13.9062 204.117 13.4754 204.923 13.3009 205.801C13.1264 206.678 13.2159 207.587 13.5582 208.414C13.9006 209.24 14.4805 209.947 15.2243 210.444C15.9681 210.941 16.8424 211.206 17.737 211.206C18.9365 211.206 20.087 210.73 20.9352 209.881C21.7834 209.033 22.2601 207.883 22.2601 206.683Z" stroke="#1CC2EB" stroke-linecap="round" stroke-linejoin="round"/>
<path opacity="0.3" d="M356.038 289.766C356.039 288.871 355.773 287.996 355.276 287.252C354.779 286.507 354.073 285.927 353.246 285.584C352.419 285.242 351.509 285.152 350.631 285.326C349.753 285.5 348.947 285.931 348.314 286.564C347.681 287.197 347.25 288.004 347.075 288.881C346.9 289.759 346.99 290.669 347.333 291.496C347.675 292.323 348.255 293.03 349 293.527C349.744 294.024 350.619 294.289 351.514 294.289C352.714 294.289 353.864 293.812 354.712 292.964C355.561 292.116 356.038 290.966 356.038 289.766Z" stroke="#1CC2EB" stroke-linecap="round" stroke-linejoin="round"/>
<g filter="url(#filter3_d_148_461)">
<path d="M202.996 196.569C202.997 195.464 202.67 194.383 202.056 193.464C201.442 192.545 200.57 191.828 199.549 191.405C198.528 190.982 197.405 190.871 196.321 191.086C195.237 191.301 194.241 191.833 193.459 192.615C192.678 193.396 192.145 194.392 191.929 195.476C191.714 196.559 191.824 197.683 192.247 198.704C192.67 199.725 193.386 200.598 194.305 201.212C195.224 201.826 196.305 202.153 197.41 202.153C198.891 202.153 200.312 201.565 201.359 200.518C202.407 199.471 202.996 198.05 202.996 196.569Z" fill="#1CC2EB"/>
</g>
<g opacity="0.299">
<path d="M108.211 36.5811L144.211 0.581055L340.111 53.07L373.871 179.081" stroke="#3A5CAA" stroke-linecap="round" stroke-linejoin="round"/>
<path d="M376.6 189.269L376.712 189.691" stroke="#3A5CAA" stroke-linecap="round" stroke-linejoin="round"/>
<path d="M377.626 193.101L392.025 246.842" stroke="#3A5CAA" stroke-linecap="round" stroke-linejoin="round" stroke-dasharray="1.01 4.05"/>
<path d="M392.483 248.547L392.597 248.969L392.289 249.277" stroke="#3A5CAA" stroke-linecap="round" stroke-linejoin="round"/>
<path d="M389.845 251.718L250.719 390.847" stroke="#3A5CAA" stroke-linecap="round" stroke-linejoin="round" stroke-dasharray="0.99 3.96"/>
<path d="M249.497 392.067L249.188 392.375L248.766 392.263" stroke="#3A5CAA" stroke-linecap="round" stroke-linejoin="round"/>
<path d="M245.434 391.369L55.379 340.443" stroke="#3A5CAA" stroke-linecap="round" stroke-linejoin="round" stroke-dasharray="0.99 3.96"/>
<path d="M53.7122 339.998L53.292 339.884L53.1802 339.464" stroke="#3A5CAA" stroke-linecap="round" stroke-linejoin="round"/>
<path d="M52.285 336.129L1.35901 146.074" stroke="#3A5CAA" stroke-linecap="round" stroke-linejoin="round" stroke-dasharray="0.99 3.96"/>
<path d="M0.914062 144.41L0.800049 143.987L1.10791 143.679" stroke="#3A5CAA" stroke-linecap="round" stroke-linejoin="round"/>
<path d="M3.59802 141.186L101.955 42.729" stroke="#3A5CAA" stroke-linecap="round" stroke-linejoin="round" stroke-dasharray="1.01 4.04"/>
<path d="M103.201 41.482L103.509 41.176" stroke="#3A5CAA" stroke-linecap="round" stroke-linejoin="round"/>
<path d="M380.511 184.174C380.511 183.13 380.201 182.11 379.621 181.242C379.041 180.374 378.216 179.697 377.252 179.298C376.287 178.899 375.226 178.795 374.202 178.999C373.178 179.203 372.238 179.705 371.5 180.444C370.762 181.182 370.259 182.123 370.056 183.147C369.853 184.171 369.958 185.232 370.358 186.196C370.757 187.161 371.434 187.985 372.302 188.564C373.171 189.144 374.191 189.453 375.235 189.453C376.635 189.452 377.977 188.896 378.966 187.906C379.955 186.916 380.511 185.574 380.511 184.174V184.174Z" stroke="#3A5CAA" stroke-linecap="round" stroke-linejoin="round"/>
<path d="M32.1381 36.7881H351.52V356.172H32.1381V36.7881Z" stroke="#3A5CAA" stroke-linecap="round"/>
</g>
<path opacity="0.4" d="M286.978 356.169C286.978 355.641 286.821 355.124 286.527 354.685C286.233 354.246 285.816 353.904 285.327 353.702C284.839 353.5 284.302 353.447 283.784 353.551C283.265 353.654 282.789 353.909 282.416 354.282C282.042 354.656 281.788 355.132 281.685 355.65C281.582 356.169 281.635 356.706 281.838 357.194C282.04 357.682 282.383 358.099 282.822 358.393C283.261 358.686 283.778 358.843 284.306 358.843C284.657 358.843 285.005 358.774 285.329 358.639C285.653 358.505 285.948 358.308 286.196 358.06C286.444 357.811 286.641 357.517 286.775 357.192C286.909 356.868 286.978 356.52 286.978 356.169V356.169Z" stroke="#1CC2EB" stroke-linecap="round" stroke-linejoin="round"/>
<path opacity="0.4" d="M112.734 36.5771C112.734 35.6817 112.469 34.8064 111.972 34.0619C111.474 33.3174 110.767 32.7372 109.94 32.3946C109.113 32.0519 108.203 31.9624 107.325 32.1371C106.447 32.3119 105.64 32.7431 105.007 33.3764C104.374 34.0096 103.943 34.8163 103.769 35.6945C103.594 36.5727 103.684 37.4828 104.027 38.3098C104.37 39.1369 104.951 39.8436 105.696 40.3406C106.44 40.8376 107.316 41.1026 108.211 41.102C109.411 41.1012 110.561 40.6242 111.409 39.7757C112.257 38.9272 112.734 37.7767 112.734 36.5771Z" stroke="#1CC2EB" stroke-linecap="round" stroke-linejoin="round"/>
<path opacity="0.4" d="M22.2601 206.683C22.2601 205.789 21.9947 204.914 21.4977 204.17C21.0007 203.426 20.2944 202.847 19.4679 202.504C18.6414 202.162 17.732 202.073 16.8546 202.247C15.9772 202.422 15.1713 202.852 14.5387 203.485C13.9062 204.117 13.4754 204.923 13.3009 205.801C13.1264 206.678 13.2159 207.587 13.5582 208.414C13.9006 209.24 14.4805 209.947 15.2243 210.444C15.9681 210.941 16.8424 211.206 17.737 211.206C18.9365 211.206 20.087 210.73 20.9352 209.881C21.7834 209.033 22.2601 207.883 22.2601 206.683Z" stroke="#1CC2EB" stroke-linecap="round" stroke-linejoin="round"/>
<path opacity="0.3" d="M356.038 289.766C356.039 288.871 355.773 287.996 355.276 287.252C354.779 286.507 354.073 285.927 353.246 285.584C352.419 285.242 351.509 285.152 350.631 285.326C349.753 285.5 348.947 285.931 348.314 286.564C347.681 287.197 347.25 288.004 347.075 288.881C346.9 289.759 346.99 290.669 347.333 291.496C347.675 292.323 348.255 293.03 349 293.527C349.744 294.024 350.619 294.289 351.514 294.289C352.714 294.289 353.864 293.812 354.712 292.964C355.561 292.116 356.038 290.966 356.038 289.766Z" stroke="#1CC2EB" stroke-linecap="round" stroke-linejoin="round"/>
<g filter="url(#filter4_d_148_461)">
<path d="M202.996 196.569C202.997 195.464 202.67 194.383 202.056 193.464C201.442 192.545 200.57 191.828 199.549 191.405C198.528 190.982 197.405 190.871 196.321 191.086C195.237 191.301 194.241 191.833 193.459 192.615C192.678 193.396 192.145 194.392 191.929 195.476C191.714 196.559 191.824 197.683 192.247 198.704C192.67 199.725 193.386 200.598 194.305 201.212C195.224 201.826 196.305 202.153 197.41 202.153C198.891 202.153 200.312 201.565 201.359 200.518C202.407 199.471 202.996 198.05 202.996 196.569Z" fill="#1CC2EB"/>
</g>
<g opacity="0.299">
<path d="M108.211 36.5811L144.211 0.581055L340.111 53.07L373.871 179.081" stroke="#3A5CAA" stroke-linecap="round" stroke-linejoin="round"/>
<path d="M376.6 189.269L376.712 189.691" stroke="#3A5CAA" stroke-linecap="round" stroke-linejoin="round"/>
<path d="M377.626 193.101L392.025 246.842" stroke="#3A5CAA" stroke-linecap="round" stroke-linejoin="round" stroke-dasharray="1.01 4.05"/>
<path d="M392.483 248.547L392.597 248.969L392.289 249.277" stroke="#3A5CAA" stroke-linecap="round" stroke-linejoin="round"/>
<path d="M389.845 251.718L250.719 390.847" stroke="#3A5CAA" stroke-linecap="round" stroke-linejoin="round" stroke-dasharray="0.99 3.96"/>
<path d="M249.497 392.067L249.188 392.375L248.766 392.263" stroke="#3A5CAA" stroke-linecap="round" stroke-linejoin="round"/>
<path d="M245.434 391.369L55.379 340.443" stroke="#3A5CAA" stroke-linecap="round" stroke-linejoin="round" stroke-dasharray="0.99 3.96"/>
<path d="M53.7122 339.998L53.292 339.884L53.1802 339.464" stroke="#3A5CAA" stroke-linecap="round" stroke-linejoin="round"/>
<path d="M52.285 336.129L1.35901 146.074" stroke="#3A5CAA" stroke-linecap="round" stroke-linejoin="round" stroke-dasharray="0.99 3.96"/>
<path d="M0.914062 144.41L0.800049 143.987L1.10791 143.679" stroke="#3A5CAA" stroke-linecap="round" stroke-linejoin="round"/>
<path d="M3.59802 141.186L101.955 42.729" stroke="#3A5CAA" stroke-linecap="round" stroke-linejoin="round" stroke-dasharray="1.01 4.04"/>
<path d="M103.201 41.482L103.509 41.176" stroke="#3A5CAA" stroke-linecap="round" stroke-linejoin="round"/>
<path d="M380.511 184.174C380.511 183.13 380.201 182.11 379.621 181.242C379.041 180.374 378.216 179.697 377.252 179.298C376.287 178.899 375.226 178.795 374.202 178.999C373.178 179.203 372.238 179.705 371.5 180.444C370.762 181.182 370.259 182.123 370.056 183.147C369.853 184.171 369.958 185.232 370.358 186.196C370.757 187.161 371.434 187.985 372.302 188.564C373.171 189.144 374.191 189.453 375.235 189.453C376.635 189.452 377.977 188.896 378.966 187.906C379.955 186.916 380.511 185.574 380.511 184.174V184.174Z" stroke="#3A5CAA" stroke-linecap="round" stroke-linejoin="round"/>
<path d="M32.1381 36.7881H351.52V356.172H32.1381V36.7881Z" stroke="#3A5CAA" stroke-linecap="round"/>
</g>
<path opacity="0.4" d="M286.978 356.169C286.978 355.641 286.821 355.124 286.527 354.685C286.233 354.246 285.816 353.904 285.327 353.702C284.839 353.5 284.302 353.447 283.784 353.551C283.265 353.654 282.789 353.909 282.416 354.282C282.042 354.656 281.788 355.132 281.685 355.65C281.582 356.169 281.635 356.706 281.838 357.194C282.04 357.682 282.383 358.099 282.822 358.393C283.261 358.686 283.778 358.843 284.306 358.843C284.657 358.843 285.005 358.774 285.329 358.639C285.653 358.505 285.948 358.308 286.196 358.06C286.444 357.811 286.641 357.517 286.775 357.192C286.909 356.868 286.978 356.52 286.978 356.169V356.169Z" stroke="#1CC2EB" stroke-linecap="round" stroke-linejoin="round"/>
<path opacity="0.4" d="M112.734 36.5771C112.734 35.6817 112.469 34.8064 111.972 34.0619C111.474 33.3174 110.767 32.7372 109.94 32.3946C109.113 32.0519 108.203 31.9624 107.325 32.1371C106.447 32.3119 105.64 32.7431 105.007 33.3764C104.374 34.0096 103.943 34.8163 103.769 35.6945C103.594 36.5727 103.684 37.4828 104.027 38.3098C104.37 39.1369 104.951 39.8436 105.696 40.3406C106.44 40.8376 107.316 41.1026 108.211 41.102C109.411 41.1012 110.561 40.6242 111.409 39.7757C112.257 38.9272 112.734 37.7767 112.734 36.5771Z" stroke="#1CC2EB" stroke-linecap="round" stroke-linejoin="round"/>
<path opacity="0.4" d="M22.2601 206.683C22.2601 205.789 21.9947 204.914 21.4977 204.17C21.0007 203.426 20.2944 202.847 19.4679 202.504C18.6414 202.162 17.732 202.073 16.8546 202.247C15.9772 202.422 15.1713 202.852 14.5387 203.485C13.9062 204.117 13.4754 204.923 13.3009 205.801C13.1264 206.678 13.2159 207.587 13.5582 208.414C13.9006 209.24 14.4805 209.947 15.2243 210.444C15.9681 210.941 16.8424 211.206 17.737 211.206C18.9365 211.206 20.087 210.73 20.9352 209.881C21.7834 209.033 22.2601 207.883 22.2601 206.683Z" stroke="#1CC2EB" stroke-linecap="round" stroke-linejoin="round"/>
<path opacity="0.3" d="M356.038 289.766C356.039 288.871 355.773 287.996 355.276 287.252C354.779 286.507 354.073 285.927 353.246 285.584C352.419 285.242 351.509 285.152 350.631 285.326C349.753 285.5 348.947 285.931 348.314 286.564C347.681 287.197 347.25 288.004 347.075 288.881C346.9 289.759 346.99 290.669 347.333 291.496C347.675 292.323 348.255 293.03 349 293.527C349.744 294.024 350.619 294.289 351.514 294.289C352.714 294.289 353.864 293.812 354.712 292.964C355.561 292.116 356.038 290.966 356.038 289.766Z" stroke="#1CC2EB" stroke-linecap="round" stroke-linejoin="round"/>
<g filter="url(#filter5_d_148_461)">
<path d="M202.996 196.569C202.997 195.464 202.67 194.383 202.056 193.464C201.442 192.545 200.57 191.828 199.549 191.405C198.528 190.982 197.405 190.871 196.321 191.086C195.237 191.301 194.241 191.833 193.459 192.615C192.678 193.396 192.145 194.392 191.929 195.476C191.714 196.559 191.824 197.683 192.247 198.704C192.67 199.725 193.386 200.598 194.305 201.212C195.224 201.826 196.305 202.153 197.41 202.153C198.891 202.153 200.312 201.565 201.359 200.518C202.407 199.471 202.996 198.05 202.996 196.569Z" fill="#1CC2EB"/>
</g>
<g opacity="0.299">
<path d="M108.211 36.5811L144.211 0.581055L340.111 53.07L373.871 179.081" stroke="#3A5CAA" stroke-linecap="round" stroke-linejoin="round"/>
<path d="M376.6 189.269L376.712 189.691" stroke="#3A5CAA" stroke-linecap="round" stroke-linejoin="round"/>
<path d="M377.626 193.101L392.025 246.842" stroke="#3A5CAA" stroke-linecap="round" stroke-linejoin="round" stroke-dasharray="1.01 4.05"/>
<path d="M392.483 248.547L392.597 248.969L392.289 249.277" stroke="#3A5CAA" stroke-linecap="round" stroke-linejoin="round"/>
<path d="M389.845 251.718L250.719 390.847" stroke="#3A5CAA" stroke-linecap="round" stroke-linejoin="round" stroke-dasharray="0.99 3.96"/>
<path d="M249.497 392.067L249.188 392.375L248.766 392.263" stroke="#3A5CAA" stroke-linecap="round" stroke-linejoin="round"/>
<path d="M245.434 391.369L55.379 340.443" stroke="#3A5CAA" stroke-linecap="round" stroke-linejoin="round" stroke-dasharray="0.99 3.96"/>
<path d="M53.7122 339.998L53.292 339.884L53.1802 339.464" stroke="#3A5CAA" stroke-linecap="round" stroke-linejoin="round"/>
<path d="M52.285 336.129L1.35901 146.074" stroke="#3A5CAA" stroke-linecap="round" stroke-linejoin="round" stroke-dasharray="0.99 3.96"/>
<path d="M0.914062 144.41L0.800049 143.987L1.10791 143.679" stroke="#3A5CAA" stroke-linecap="round" stroke-linejoin="round"/>
<path d="M3.59802 141.186L101.955 42.729" stroke="#3A5CAA" stroke-linecap="round" stroke-linejoin="round" stroke-dasharray="1.01 4.04"/>
<path d="M103.201 41.482L103.509 41.176" stroke="#3A5CAA" stroke-linecap="round" stroke-linejoin="round"/>
<path d="M380.511 184.174C380.511 183.13 380.201 182.11 379.621 181.242C379.041 180.374 378.216 179.697 377.252 179.298C376.287 178.899 375.226 178.795 374.202 178.999C373.178 179.203 372.238 179.705 371.5 180.444C370.762 181.182 370.259 182.123 370.056 183.147C369.853 184.171 369.958 185.232 370.358 186.196C370.757 187.161 371.434 187.985 372.302 188.564C373.171 189.144 374.191 189.453 375.235 189.453C376.635 189.452 377.977 188.896 378.966 187.906C379.955 186.916 380.511 185.574 380.511 184.174V184.174Z" stroke="#3A5CAA" stroke-linecap="round" stroke-linejoin="round"/>
<path d="M32.1381 36.7881H351.52V356.172H32.1381V36.7881Z" stroke="#3A5CAA" stroke-linecap="round"/>
</g>
<path opacity="0.4" d="M286.978 356.169C286.978 355.641 286.821 355.124 286.527 354.685C286.233 354.246 285.816 353.904 285.327 353.702C284.839 353.5 284.302 353.447 283.784 353.551C283.265 353.654 282.789 353.909 282.416 354.282C282.042 354.656 281.788 355.132 281.685 355.65C281.582 356.169 281.635 356.706 281.838 357.194C282.04 357.682 282.383 358.099 282.822 358.393C283.261 358.686 283.778 358.843 284.306 358.843C284.657 358.843 285.005 358.774 285.329 358.639C285.653 358.505 285.948 358.308 286.196 358.06C286.444 357.811 286.641 357.517 286.775 357.192C286.909 356.868 286.978 356.52 286.978 356.169V356.169Z" stroke="#1CC2EB" stroke-linecap="round" stroke-linejoin="round"/>
<path opacity="0.4" d="M112.734 36.5771C112.734 35.6817 112.469 34.8064 111.972 34.0619C111.474 33.3174 110.767 32.7372 109.94 32.3946C109.113 32.0519 108.203 31.9624 107.325 32.1371C106.447 32.3119 105.64 32.7431 105.007 33.3764C104.374 34.0096 103.943 34.8163 103.769 35.6945C103.594 36.5727 103.684 37.4828 104.027 38.3098C104.37 39.1369 104.951 39.8436 105.696 40.3406C106.44 40.8376 107.316 41.1026 108.211 41.102C109.411 41.1012 110.561 40.6242 111.409 39.7757C112.257 38.9272 112.734 37.7767 112.734 36.5771Z" stroke="#1CC2EB" stroke-linecap="round" stroke-linejoin="round"/>
<path opacity="0.4" d="M22.2601 206.683C22.2601 205.789 21.9947 204.914 21.4977 204.17C21.0007 203.426 20.2944 202.847 19.4679 202.504C18.6414 202.162 17.732 202.073 16.8546 202.247C15.9772 202.422 15.1713 202.852 14.5387 203.485C13.9062 204.117 13.4754 204.923 13.3009 205.801C13.1264 206.678 13.2159 207.587 13.5582 208.414C13.9006 209.24 14.4805 209.947 15.2243 210.444C15.9681 210.941 16.8424 211.206 17.737 211.206C18.9365 211.206 20.087 210.73 20.9352 209.881C21.7834 209.033 22.2601 207.883 22.2601 206.683Z" stroke="#1CC2EB" stroke-linecap="round" stroke-linejoin="round"/>
<path opacity="0.3" d="M356.038 289.766C356.039 288.871 355.773 287.996 355.276 287.252C354.779 286.507 354.073 285.927 353.246 285.584C352.419 285.242 351.509 285.152 350.631 285.326C349.753 285.5 348.947 285.931 348.314 286.564C347.681 287.197 347.25 288.004 347.075 288.881C346.9 289.759 346.99 290.669 347.333 291.496C347.675 292.323 348.255 293.03 349 293.527C349.744 294.024 350.619 294.289 351.514 294.289C352.714 294.289 353.864 293.812 354.712 292.964C355.561 292.116 356.038 290.966 356.038 289.766Z" stroke="#1CC2EB" stroke-linecap="round" stroke-linejoin="round"/>
<defs>
<filter id="filter0_d_148_461" x="179.822" y="178.979" width="35.1741" height="35.1741" filterUnits="userSpaceOnUse" color-interpolation-filters="sRGB">
<feFlood flood-opacity="0" result="BackgroundImageFix"/>
<feColorMatrix in="SourceAlpha" type="matrix" values="0 0 0 0 0 0 0 0 0 0 0 0 0 0 0 0 0 0 127 0" result="hardAlpha"/>
<feOffset/>
<feGaussianBlur stdDeviation="6"/>
<feColorMatrix type="matrix" values="0 0 0 0 1 0 0 0 0 1 0 0 0 0 1 0 0 0 0.796 0"/>
<feBlend mode="normal" in2="BackgroundImageFix" result="effect1_dropShadow_148_461"/>
<feBlend mode="normal" in="SourceGraphic" in2="effect1_dropShadow_148_461" result="shape"/>
</filter>
<filter id="filter1_d_148_461" x="179.822" y="178.979" width="35.1741" height="35.1741" filterUnits="userSpaceOnUse" color-interpolation-filters="sRGB">
<feFlood flood-opacity="0" result="BackgroundImageFix"/>
<feColorMatrix in="SourceAlpha" type="matrix" values="0 0 0 0 0 0 0 0 0 0 0 0 0 0 0 0 0 0 127 0" result="hardAlpha"/>
<feOffset/>
<feGaussianBlur stdDeviation="6"/>
<feColorMatrix type="matrix" values="0 0 0 0 1 0 0 0 0 1 0 0 0 0 1 0 0 0 0.796 0"/>
<feBlend mode="normal" in2="BackgroundImageFix" result="effect1_dropShadow_148_461"/>
<feBlend mode="normal" in="SourceGraphic" in2="effect1_dropShadow_148_461" result="shape"/>
</filter>
<filter id="filter2_d_148_461" x="179.822" y="178.979" width="35.1741" height="35.1741" filterUnits="userSpaceOnUse" color-interpolation-filters="sRGB">
<feFlood flood-opacity="0" result="BackgroundImageFix"/>
<feColorMatrix in="SourceAlpha" type="matrix" values="0 0 0 0 0 0 0 0 0 0 0 0 0 0 0 0 0 0 127 0" result="hardAlpha"/>
<feOffset/>
<feGaussianBlur stdDeviation="6"/>
<feColorMatrix type="matrix" values="0 0 0 0 1 0 0 0 0 1 0 0 0 0 1 0 0 0 0.796 0"/>
<feBlend mode="normal" in2="BackgroundImageFix" result="effect1_dropShadow_148_461"/>
<feBlend mode="normal" in="SourceGraphic" in2="effect1_dropShadow_148_461" result="shape"/>
</filter>
<filter id="filter3_d_148_461" x="179.822" y="178.979" width="35.1741" height="35.1741" filterUnits="userSpaceOnUse" color-interpolation-filters="sRGB">
<feFlood flood-opacity="0" result="BackgroundImageFix"/>
<feColorMatrix in="SourceAlpha" type="matrix" values="0 0 0 0 0 0 0 0 0 0 0 0 0 0 0 0 0 0 127 0" result="hardAlpha"/>
<feOffset/>
<feGaussianBlur stdDeviation="6"/>
<feColorMatrix type="matrix" values="0 0 0 0 1 0 0 0 0 1 0 0 0 0 1 0 0 0 0.796 0"/>
<feBlend mode="normal" in2="BackgroundImageFix" result="effect1_dropShadow_148_461"/>
<feBlend mode="normal" in="SourceGraphic" in2="effect1_dropShadow_148_461" result="shape"/>
</filter>
<filter id="filter4_d_148_461" x="179.822" y="178.979" width="35.1741" height="35.1741" filterUnits="userSpaceOnUse" color-interpolation-filters="sRGB">
<feFlood flood-opacity="0" result="BackgroundImageFix"/>
<feColorMatrix in="SourceAlpha" type="matrix" values="0 0 0 0 0 0 0 0 0 0 0 0 0 0 0 0 0 0 127 0" result="hardAlpha"/>
<feOffset/>
<feGaussianBlur stdDeviation="6"/>
<feColorMatrix type="matrix" values="0 0 0 0 1 0 0 0 0 1 0 0 0 0 1 0 0 0 0.796 0"/>
<feBlend mode="normal" in2="BackgroundImageFix" result="effect1_dropShadow_148_461"/>
<feBlend mode="normal" in="SourceGraphic" in2="effect1_dropShadow_148_461" result="shape"/>
</filter>
<filter id="filter5_d_148_461" x="179.822" y="178.979" width="35.1741" height="35.1741" filterUnits="userSpaceOnUse" color-interpolation-filters="sRGB">
<feFlood flood-opacity="0" result="BackgroundImageFix"/>
<feColorMatrix in="SourceAlpha" type="matrix" values="0 0 0 0 0 0 0 0 0 0 0 0 0 0 0 0 0 0 127 0" result="hardAlpha"/>
<feOffset/>
<feGaussianBlur stdDeviation="6"/>
<feColorMatrix type="matrix" values="0 0 0 0 1 0 0 0 0 1 0 0 0 0 1 0 0 0 0.796 0"/>
<feBlend mode="normal" in2="BackgroundImageFix" result="effect1_dropShadow_148_461"/>
<feBlend mode="normal" in="SourceGraphic" in2="effect1_dropShadow_148_461" result="shape"/>
</filter>
</defs>
</svg>
