<svg width="30" height="37" viewBox="0 0 30 37" fill="none" xmlns="http://www.w3.org/2000/svg">
<path d="M1.54819 13.4946C-1.55532 18.8801 0.417639 27.053 3.84961 32.0085C5.5627 34.486 7.2971 36.7099 9.67266 36.7099C9.71744 36.7099 9.76233 36.7091 9.80831 36.7073C10.9244 36.6627 11.731 36.3191 12.5108 35.987C13.3863 35.6139 14.2918 35.2281 15.712 35.2281C17.0632 35.2281 17.9254 35.6014 18.7593 35.9622C19.5811 36.3178 20.4276 36.6856 21.6784 36.6621C24.3543 36.6123 25.9972 34.2125 27.4467 32.0955C28.9593 29.8851 29.718 27.7389 29.9741 26.9188L29.9844 26.8862C30.0331 26.7404 29.9643 26.5813 29.8246 26.5171C29.8207 26.5153 29.8065 26.5094 29.8025 26.5078C29.3313 26.3151 25.1979 24.4814 25.1544 19.4835C25.1141 15.423 28.2553 13.2728 28.8853 12.883L28.9146 12.8647C28.9829 12.8208 29.0304 12.7511 29.0466 12.6714C29.0627 12.5919 29.0458 12.5091 29.0001 12.4422C26.8319 9.2692 23.5087 8.79101 22.1708 8.73347C21.9767 8.71409 21.7763 8.70435 21.575 8.70435C20.0036 8.70435 18.4982 9.29784 17.2889 9.77471C16.454 10.1039 15.733 10.3882 15.2356 10.3882C14.6768 10.3882 13.9516 10.1004 13.1119 9.76725C11.9889 9.32156 10.7161 8.81652 9.36863 8.81652C9.3365 8.81652 9.30484 8.81688 9.27367 8.81749C6.14068 8.86358 3.18028 10.656 1.54819 13.4946Z" fill="white"/>
<path d="M22.1736 0.000231266C20.2764 0.0775029 18.0005 1.24536 16.6401 2.8387C15.4841 4.17796 14.3547 6.41089 14.6523 8.66164C14.6709 8.80246 14.7855 8.91115 14.9272 8.9221C15.0552 8.93209 15.1859 8.93714 15.3162 8.93726C17.1713 8.93726 19.1725 7.91095 20.5392 6.25839C21.9777 4.5134 22.705 2.27397 22.485 0.268034C22.4677 0.110843 22.3294 -0.00590714 22.1736 0.000231266Z" fill="white"/>
</svg>
