<svg width="23" height="15" viewBox="0 0 23 15" fill="none" xmlns="http://www.w3.org/2000/svg">
<path d="M20.4031 0H1.65174C0.739484 0 0 0.739484 0 1.65174V12.7981C0 13.7103 0.739484 14.4498 1.65174 14.4498H20.4031C21.3153 14.4498 22.0549 13.7103 22.0549 12.7981V1.65174C22.0549 0.739484 21.3154 0 20.4031 0Z" fill="#F5F5F5"/>
<path d="M13.1386 4.06025C11.3913 2.8954 9.03129 3.37164 7.86721 5.11587C7.28331 5.98648 7.52066 7.16947 8.39424 7.7519C9.26717 8.33433 10.4464 8.0978 11.0288 7.22413C11.6112 6.35051 12.7912 6.11691 13.6641 6.69628C14.5385 7.27871 14.7736 8.4617 14.1904 9.33231C15.3552 7.5852 14.8844 5.22516 13.1386 4.06025Z" fill="#FF4B55"/>
<path d="M7.86711 5.11572C7.28322 5.98633 7.52057 7.16932 8.39414 7.75175C9.26708 8.33418 10.4463 8.09765 11.0287 7.22399C11.6111 6.35036 12.7911 6.11676 13.664 6.69613C14.5384 7.27856 14.7735 8.46156 14.1903 9.33216C13.027 11.0824 10.6677 11.5527 8.92045 10.3878C7.17475 9.22309 6.7023 6.86305 7.86711 5.11572Z" fill="#41479B"/>
<path d="M15.0732 2.62389L15.7639 3.6621C15.8219 3.74933 15.7984 3.8671 15.7114 3.92538L15.5362 4.04268C15.4488 4.10117 15.3305 4.07765 15.2722 3.99012L14.5806 2.95217C14.5224 2.86485 14.546 2.74687 14.6333 2.68859L14.8093 2.57107C14.8968 2.51271 15.0149 2.5364 15.0732 2.62389Z" fill="#464655"/>
<path d="M16.1388 4.22469L16.8317 5.26226C16.8902 5.34987 16.8664 5.46842 16.7784 5.52648L16.6025 5.64275C16.5153 5.70047 16.3977 5.67673 16.3396 5.58976L15.6471 4.55327C15.5887 4.466 15.6122 4.34793 15.6995 4.28956L15.875 4.17222C15.9623 4.11385 16.0804 4.13733 16.1388 4.22469Z" fill="#464655"/>
<path d="M15.8127 2.1306L17.5714 4.76998C17.6297 4.85734 17.606 4.97537 17.5186 5.03361L17.342 5.15138C17.2546 5.20962 17.1365 5.18601 17.0783 5.09865L15.3189 2.45944C15.2607 2.37204 15.2843 2.25392 15.3718 2.19568L15.549 2.0777C15.6364 2.01967 15.7544 2.04324 15.8127 2.1306Z" fill="#464655"/>
<path d="M16.5502 1.6376L17.2425 2.67784C17.3008 2.76546 17.2768 2.88374 17.189 2.94177L17.013 3.05807C16.9256 3.11579 16.808 3.09206 16.75 3.00492L16.0572 1.96605C15.999 1.8787 16.0226 1.76063 16.11 1.70234L16.2865 1.58466C16.3739 1.52642 16.492 1.55007 16.5502 1.6376Z" fill="#464655"/>
<path d="M17.6167 3.24203L18.3078 4.28012C18.366 4.36739 18.3424 4.48524 18.2553 4.54353L18.0797 4.66087C17.9923 4.71928 17.8741 4.69571 17.8158 4.60818L17.1247 3.5701C17.0666 3.48283 17.0901 3.36497 17.1772 3.30669L17.3527 3.18935C17.4402 3.1309 17.5584 3.15442 17.6167 3.24203Z" fill="#464655"/>
<path d="M5.71711 8.86103L7.47564 11.4976C7.53388 11.5849 7.51036 11.7029 7.423 11.7612L7.2469 11.8788C7.15955 11.9371 7.04148 11.9136 6.98315 11.8262L5.22462 9.18961C5.16634 9.1023 5.1899 8.98427 5.27726 8.92599L5.4534 8.80839C5.54071 8.75007 5.65883 8.77363 5.71711 8.86103Z" fill="#464655"/>
<path d="M4.97878 9.3542L5.6692 10.3898C5.72739 10.4771 5.70392 10.5949 5.61678 10.6532L5.44163 10.7705C5.35431 10.829 5.23611 10.8055 5.17775 10.7181L4.48651 9.68274C4.42818 9.59543 4.4517 9.47736 4.53906 9.41903L4.71507 9.30152C4.80238 9.24324 4.9205 9.2668 4.97878 9.3542Z" fill="#464655"/>
<path d="M6.04579 10.9554L6.73699 11.9936C6.79514 12.0809 6.77158 12.1988 6.68435 12.257L6.50868 12.3745C6.42128 12.4329 6.30312 12.4093 6.2448 12.3218L5.55317 11.2838C5.49498 11.1965 5.51854 11.0785 5.60581 11.0203L5.78191 10.9027C5.86935 10.8442 5.98751 10.8679 6.04579 10.9554Z" fill="#464655"/>
<path d="M4.24042 9.84737L5.99783 12.484C6.05603 12.5713 6.03247 12.6893 5.94532 12.7476L5.7697 12.865C5.68235 12.9234 5.56419 12.8999 5.50586 12.8125L3.74742 10.1761C3.68914 10.0888 3.71279 9.97069 3.80015 9.91241L3.97684 9.79464C4.06411 9.7364 4.18219 9.76001 4.24042 9.84737Z" fill="#464655"/>
<path d="M5.22478 5.26249L6.98305 2.6238C7.04133 2.53635 7.15945 2.51275 7.24685 2.57107L7.4229 2.68862C7.51022 2.74691 7.53374 2.86493 7.47554 2.95225L5.71658 5.58948C5.65843 5.67663 5.54079 5.70032 5.45347 5.64251L5.27811 5.52642C5.19032 5.46835 5.16646 5.35002 5.22478 5.26249Z" fill="#464655"/>
<path d="M4.48628 4.76983L6.24485 2.13061C6.30313 2.04317 6.42133 2.01956 6.50874 2.07797L6.68436 2.1954C6.77154 2.25368 6.79506 2.37158 6.73691 2.45885L4.97881 5.09819C4.92053 5.18564 4.80241 5.20929 4.71501 5.15092L4.53892 5.03337C4.45165 4.97513 4.42808 4.85714 4.48628 4.76983Z" fill="#464655"/>
<path d="M3.74718 4.27985L5.50593 1.63801C5.56421 1.55052 5.68245 1.52687 5.76985 1.58528L5.94547 1.7027C6.03261 1.76099 6.05618 1.87876 5.99811 1.96607L4.24044 4.6083C4.18225 4.69575 4.06409 4.71948 3.97669 4.6612L3.80008 4.54343C3.71268 4.48519 3.68907 4.36721 3.74718 4.27985Z" fill="#464655"/>
<path d="M14.5809 11.4973L15.2721 10.462C15.3305 10.3746 15.4487 10.3511 15.536 10.4096L15.7111 10.5268C15.7983 10.5852 15.8217 10.703 15.7635 10.7903L15.0731 11.8258C15.0148 11.9132 14.8967 11.9368 14.8093 11.8785L14.6333 11.761C14.5461 11.7027 14.5225 11.5847 14.5809 11.4973Z" fill="#464655"/>
<path d="M15.647 9.90162L16.3393 8.86117C16.3975 8.77373 16.5157 8.75003 16.6031 8.80832L16.7795 8.92591C16.8669 8.98419 16.8905 9.10235 16.8322 9.18971L16.1384 10.2285C16.0802 10.3156 15.9625 10.3393 15.8752 10.2814L15.7002 10.1654C15.6126 10.1073 15.5887 9.98911 15.647 9.90162Z" fill="#464655"/>
<path d="M15.3189 11.9934L16.0106 10.9553C16.0688 10.8679 16.1869 10.8443 16.2743 10.9026L16.4511 11.0205C16.5384 11.0787 16.562 11.1966 16.5038 11.284L15.8126 12.3222C15.7544 12.4096 15.6364 12.4333 15.549 12.3751L15.3717 12.2571C15.2844 12.1989 15.2607 12.0808 15.3189 11.9934Z" fill="#464655"/>
<path d="M16.3862 10.3897L17.0783 9.35403C17.1366 9.2668 17.2545 9.24328 17.3419 9.30148L17.5185 9.41925C17.606 9.47753 17.6296 9.59569 17.5711 9.68309L16.8791 10.7188C16.8208 10.806 16.7028 10.8295 16.6155 10.7713L16.4388 10.6535C16.3514 10.5952 16.3278 10.4771 16.3862 10.3897Z" fill="#464655"/>
<path d="M16.0575 12.4835L16.7499 11.4473C16.8081 11.3603 16.9255 11.3366 17.0128 11.3943L17.1888 11.5106C17.2767 11.5687 17.3006 11.6871 17.2422 11.7747L16.5503 12.8123C16.492 12.8997 16.374 12.9232 16.2866 12.8651L16.1101 12.7474C16.0226 12.689 15.9991 12.5709 16.0575 12.4835Z" fill="#464655"/>
<path d="M17.125 10.8849L17.8158 9.84747C17.874 9.75998 17.9923 9.73633 18.0797 9.79479L18.2551 9.91204C18.3423 9.97036 18.3658 10.0883 18.3076 10.1756L17.6162 11.2117C17.5581 11.2989 17.4404 11.3226 17.353 11.2647L17.1782 11.1488C17.0906 11.0907 17.0668 10.9724 17.125 10.8849Z" fill="#464655"/>
</svg>
