<svg xmlns="http://www.w3.org/2000/svg" width="20.122" height="20.122" viewBox="0 0 20.122 20.122">
  <path id="Icon_language" data-name="Icon language" d="M13.051,3A10.061,10.061,0,1,0,23.122,13.061,10.056,10.056,0,0,0,13.051,3Zm6.972,6.037H17.055a15.745,15.745,0,0,0-1.388-3.582A8.079,8.079,0,0,1,20.023,9.037ZM13.061,5.052a14.173,14.173,0,0,1,1.922,3.984H11.139A14.173,14.173,0,0,1,13.061,5.052ZM5.274,15.073a7.87,7.87,0,0,1,0-4.024h3.4a16.616,16.616,0,0,0-.141,2.012,16.616,16.616,0,0,0,.141,2.012ZM6.1,17.086H9.067a15.745,15.745,0,0,0,1.388,3.582A8.036,8.036,0,0,1,6.1,17.086ZM9.067,9.037H6.1a8.036,8.036,0,0,1,4.356-3.582A15.745,15.745,0,0,0,9.067,9.037ZM13.061,21.07a14.173,14.173,0,0,1-1.922-3.984h3.843A14.173,14.173,0,0,1,13.061,21.07Zm2.354-6H10.707a14.8,14.8,0,0,1-.161-2.012,14.674,14.674,0,0,1,.161-2.012h4.709a14.675,14.675,0,0,1,.161,2.012A14.8,14.8,0,0,1,15.415,15.073Zm.252,5.594a15.745,15.745,0,0,0,1.388-3.582h2.968a8.079,8.079,0,0,1-4.356,3.582Zm1.781-5.594a16.617,16.617,0,0,0,.141-2.012,16.617,16.617,0,0,0-.141-2.012h3.4a7.87,7.87,0,0,1,0,4.024Z" transform="translate(-3 -3)" fill="#eef6ff"/>
</svg>
