<svg width="39" height="32" viewBox="0 0 39 32" fill="none" xmlns="http://www.w3.org/2000/svg">
<path d="M4.61988 6.5286C4.6689 6.03635 4.48313 5.54411 4.12835 5.21061L0.491532 0.675004V0H11.7955L20.536 19.8179L28.2198 0H39V0.675004L35.8883 3.76055C35.6225 3.96865 35.4845 4.31949 35.5412 4.661V27.339C35.4845 27.6805 35.6225 28.0313 35.8883 28.2395L38.9278 31.325V32H23.6322V31.325L26.7852 28.1647C27.0923 27.8473 27.0923 27.7472 27.0923 27.2643V8.9378L18.3273 31.9413H17.1417L6.94982 8.9378V24.3535C6.8608 25.0032 7.07109 25.6542 7.51489 26.1211L11.611 31.257V31.932H0V31.265L4.0961 26.1211C4.53086 25.6542 4.73341 24.9952 4.61988 24.3535V6.5286Z" fill="white"/>
</svg>
