<svg width="35" height="33" viewBox="0 0 35 33" fill="none" xmlns="http://www.w3.org/2000/svg">
<path d="M35 16.4979V16.5392C35 17.2858 34.7852 17.983 34.4149 18.5729L34.4245 18.5564C34.0473 19.1642 33.52 19.6454 32.8936 19.9603L32.8716 19.97C33.0203 20.5241 33.1057 21.1594 33.1057 21.8167V21.8414V21.84C33.0919 23.9824 32.3072 25.9391 31.0158 27.4503L31.0255 27.4379C29.5276 29.22 27.6209 30.6115 25.447 31.4751L25.352 31.5081C23.1011 32.4514 20.4854 33 17.7402 33C17.67 33 17.5998 33 17.5296 32.9986H17.5406C17.4814 32.9986 17.4098 33 17.3396 33C14.5986 33 11.987 32.4514 9.60666 31.4586L9.73882 31.5081C7.47414 30.6088 5.57153 29.2186 4.09295 27.4599L4.07505 27.4379C2.79334 25.9391 2.00999 23.9824 1.99622 21.8428V21.84C1.99622 21.8387 1.99622 21.8359 1.99622 21.8332C1.99622 21.1869 2.07332 20.5571 2.21787 19.9548L2.20686 20.0098C1.54191 19.6826 0.998112 19.1944 0.615388 18.5949L0.605751 18.5798C0.22578 17.9913 0 17.2721 0 16.5007C0 15.4323 0.432286 14.4642 1.13303 13.7629C1.81312 13.0589 2.7658 12.6217 3.82036 12.6217H3.8892H3.88507H3.93876C5.03874 12.6217 6.02997 13.0933 6.71833 13.8441L6.72108 13.8468C9.5392 11.908 13.0154 10.7323 16.7655 10.6869H16.7765L19.0426 0.525272C19.0839 0.352015 19.1899 0.207634 19.3331 0.118255L19.3358 0.11688C19.4377 0.0453769 19.5644 0.00275011 19.7007 0.00275011C19.7516 0.00275011 19.8012 0.00825034 19.848 0.0192508L19.8438 0.0178757L27.0495 1.59782C27.2891 1.11242 27.6484 0.719155 28.0917 0.445519L28.1041 0.438643C28.5432 0.163632 29.0774 0 29.6501 0C30.4555 0 31.1865 0.323139 31.7166 0.84841C32.2466 1.35581 32.5756 2.06946 32.5756 2.86012V2.90962V2.90687V2.94812C32.5756 3.74291 32.2466 4.46069 31.7166 4.97221L31.7152 4.97358C31.1865 5.50435 30.4541 5.83162 29.6446 5.83162C28.8406 5.83162 28.1123 5.5071 27.5837 4.98321C27.0592 4.47306 26.7343 3.76216 26.7343 2.97425C26.7343 2.95637 26.7343 2.93987 26.7343 2.922V2.92475L20.2114 1.48094L18.1808 10.6856C21.9626 10.7131 25.4677 11.875 28.378 13.8482L28.3133 13.807C29.0196 13.0727 30.0122 12.6175 31.1094 12.6175C32.1833 12.6175 33.1552 13.0534 33.8587 13.7588C34.5595 14.4409 34.9945 15.3938 34.9945 16.4471V16.5007V16.4979H35ZM8.16937 20.3783V20.4224C8.16937 21.2144 8.49428 21.9308 9.0188 22.4451C9.52681 22.9745 10.2413 23.3031 11.0329 23.3031H11.0825H11.0797C12.6974 23.3003 14.0066 21.9927 14.0094 20.377C14.0094 20.3632 14.0094 20.3467 14.0094 20.3302C14.0094 19.5396 13.6803 18.8259 13.1503 18.3199L13.1489 18.3185C12.634 17.7946 11.9168 17.4701 11.1238 17.4701C11.1086 17.4701 11.0921 17.4701 11.077 17.4701H11.0797C9.47862 17.4839 8.18314 18.7764 8.16937 20.3756V20.377V20.3783ZM23.9864 27.3031C24.1185 27.1753 24.2011 26.9951 24.2011 26.7957C24.2011 26.5964 24.1185 26.4176 23.9864 26.2883C23.8666 26.1673 23.7014 26.0931 23.5169 26.0931C23.51 26.0931 23.5031 26.0931 23.4976 26.0931H23.499C23.4962 26.0931 23.4921 26.0931 23.488 26.0931C23.2952 26.0931 23.1218 26.1673 22.991 26.2883C22.3522 26.8824 21.5496 27.3086 20.6589 27.4929L20.6272 27.4984C19.6897 27.7459 18.6131 27.8889 17.5021 27.8889C16.3911 27.8889 15.3159 27.7459 14.2888 27.4791L14.3769 27.4984C13.4532 27.31 12.6492 26.8824 12.0076 26.2856L12.0104 26.2883C11.881 26.1673 11.7061 26.0931 11.5134 26.0931C11.5093 26.0931 11.5051 26.0931 11.5024 26.0931C11.4983 26.0931 11.4927 26.0931 11.4872 26.0931C11.3041 26.0931 11.1376 26.1673 11.0178 26.2883C10.8829 26.4066 10.7975 26.5799 10.7975 26.7724V26.7861V26.7916C10.7975 26.9924 10.8815 27.1739 11.0178 27.3031C11.6538 27.9013 12.4289 28.3578 13.2893 28.6191L13.3306 28.6301C14.0204 28.8858 14.8271 29.0866 15.6642 29.1993L15.7234 29.2062C16.3346 29.2649 16.9266 29.2942 17.4993 29.2942C18.072 29.2942 18.664 29.2649 19.2753 29.2062C20.1701 29.088 20.9783 28.8858 21.7478 28.6053L21.668 28.6314C22.5711 28.3592 23.3476 27.904 23.9877 27.3031L23.985 27.3059L23.9864 27.3031ZM23.9285 23.3045H23.9753C24.7669 23.3045 25.4815 22.9758 25.9881 22.4464L25.9895 22.4451C26.514 21.9308 26.8389 21.2144 26.8389 20.4224C26.8389 20.4072 26.8389 20.3907 26.8389 20.3756V20.3783C26.8251 18.7792 25.531 17.4852 23.9299 17.4715H23.9285C23.9148 17.4715 23.8996 17.4715 23.8845 17.4715C23.0915 17.4715 22.3742 17.796 21.8593 18.3199C21.3293 18.8273 21.0003 19.5409 21.0003 20.3316V20.3811V20.3783C21.003 21.994 22.3123 23.3017 23.9299 23.3045H23.9285Z" fill="white"/>
</svg>
