<svg width="39" height="32" viewBox="0 0 39 32" fill="none" xmlns="http://www.w3.org/2000/svg">
<path d="M38.1161 3.68498C37.5034 3.95673 36.8735 4.18607 36.2299 4.37226C36.9919 3.51049 37.5729 2.4965 37.9275 1.38689C38.007 1.13817 37.9246 0.865923 37.7202 0.703256C37.516 0.540463 37.2323 0.520963 37.0075 0.654192C35.6406 1.46489 34.1659 2.04749 32.6196 2.38818C31.062 0.866175 28.9465 0 26.7595 0C22.143 0 18.3872 3.75569 18.3872 8.37201C18.3872 8.73559 18.4102 9.09716 18.4558 9.4537C12.7272 8.95072 7.40145 6.13506 3.74427 1.64894C3.61393 1.48904 3.41314 1.40286 3.20758 1.41934C3.00188 1.43545 2.81708 1.55144 2.71316 1.72971C1.97141 3.00249 1.57927 4.45819 1.57927 5.9393C1.57927 7.9566 2.29951 9.87062 3.57179 11.3662C3.18493 11.2322 2.80953 11.0648 2.45123 10.8659C2.25887 10.7588 2.02412 10.7604 1.83302 10.87C1.6418 10.9796 1.5219 11.1811 1.51687 11.4014C1.51599 11.4385 1.51599 11.4756 1.51599 11.5133C1.51599 14.5244 3.13662 17.2354 5.61437 18.713C5.40151 18.6918 5.18877 18.6609 4.97742 18.6206C4.75952 18.5789 4.53546 18.6553 4.38852 18.8215C4.24133 18.9875 4.19264 19.219 4.26045 19.4304C5.17757 22.2937 7.53883 24.3998 10.3934 25.0419C8.02582 26.5248 5.31835 27.3015 2.47614 27.3015C1.88309 27.3015 1.28665 27.2667 0.702905 27.1976C0.412922 27.1632 0.135646 27.3344 0.0368879 27.6102C-0.0618699 27.886 0.0428007 28.1936 0.289506 28.3518C3.94078 30.6929 8.1627 31.9303 12.4986 31.9303C21.0225 31.9303 26.3548 27.9108 29.3269 24.5388C33.0332 20.3343 35.1588 14.769 35.1588 9.27014C35.1588 9.04042 35.1553 8.80844 35.1482 8.5772C36.6105 7.47552 37.8694 6.14223 38.8938 4.60979C39.0495 4.37704 39.0326 4.06945 38.8523 3.8552C38.6723 3.64083 38.3723 3.57151 38.1161 3.68498Z" fill="white"/>
</svg>
